<svg width="50" height="50" viewBox="0 0 50 50" fill="none" xmlns="http://www.w3.org/2000/svg">
<path d="M25.0001 4.16675C20.8796 4.16675 16.8517 5.3886 13.4257 7.6778C9.99969 9.96699 7.32943 13.2207 5.7526 17.0275C4.17577 20.8343 3.76321 25.0232 4.56706 29.0645C5.37092 33.1057 7.35511 36.8179 10.2687 39.7315C13.1823 42.6451 16.8944 44.6292 20.9357 45.4331C24.977 46.237 29.1659 45.8244 32.9727 44.2476C36.7795 42.6707 40.0332 40.0005 42.3224 36.5745C44.6116 33.1484 45.8334 29.1205 45.8334 25.0001C45.8334 22.2642 45.2946 19.5551 44.2476 17.0275C43.2006 14.4999 41.666 12.2032 39.7315 10.2687C37.7969 8.33414 35.5003 6.79956 32.9727 5.75259C30.445 4.70562 27.736 4.16675 25.0001 4.16675V4.16675ZM25.0001 41.6667C21.7037 41.6667 18.4814 40.6893 15.7406 38.8579C12.9998 37.0265 10.8636 34.4236 9.6021 31.3781C8.34064 28.3327 8.01058 24.9816 8.65367 21.7486C9.29676 18.5156 10.8841 15.5458 13.215 13.215C15.5459 10.8841 18.5156 9.29675 21.7486 8.65366C24.9816 8.01057 28.3327 8.34063 31.3781 9.60209C34.4236 10.8635 37.0266 12.9998 38.8579 15.7406C40.6893 18.4814 41.6668 21.7037 41.6668 25.0001C41.6668 29.4204 39.9108 33.6596 36.7852 36.7852C33.6596 39.9108 29.4204 41.6667 25.0001 41.6667V41.6667Z" fill="#3366BB"/>
<path d="M25.7083 15.521C25.1978 15.0506 24.5603 14.7405 23.8751 14.6294C23.1898 14.5183 22.4871 14.611 21.8541 14.896C21.2396 15.1446 20.7132 15.5707 20.3421 16.1199C19.971 16.6691 19.7721 17.3165 19.7708 17.9793V32.021C19.7721 32.6838 19.971 33.3312 20.3421 33.8804C20.7132 34.4297 21.2396 34.8558 21.8541 35.1043C22.3057 35.3092 22.7957 35.4157 23.2916 35.4168C24.1852 35.4129 25.0458 35.079 25.7083 34.4793L33.3333 27.4585C33.6743 27.1462 33.9466 26.7664 34.1329 26.3432C34.3192 25.9199 34.4154 25.4626 34.4154 25.0002C34.4154 24.5378 34.3192 24.0804 34.1329 23.6572C33.9466 23.234 33.6743 22.8541 33.3333 22.5418L25.7083 15.521ZM23.9583 30.4168V19.5835L29.8124 25.0002L23.9583 30.4168Z" fill="#3366BB"/>
</svg>
