<svg width="50" height="50" viewBox="0 0 50 50" fill="none" xmlns="http://www.w3.org/2000/svg">
<path d="M45.8334 25.0001C45.8334 22.2642 45.2945 19.5551 44.2476 17.0275C43.2006 14.4999 41.666 12.2032 39.7315 10.2687C37.7969 8.33414 35.5003 6.79956 32.9727 5.75259C30.445 4.70562 27.736 4.16675 25.0001 4.16675C19.4747 4.16675 14.1757 6.36168 10.2687 10.2687C6.36168 14.1757 4.16675 19.4747 4.16675 25.0001C4.16675 30.5254 6.36168 35.8245 10.2687 39.7315C14.1757 43.6385 19.4747 45.8334 25.0001 45.8334C30.5254 45.8334 35.8245 43.6385 39.7315 39.7315C43.6385 35.8245 45.8334 30.5254 45.8334 25.0001V25.0001ZM41.5209 22.9167H35.4168C35.0732 18.017 33.3944 13.305 30.5626 9.29175C33.4719 10.325 36.037 12.1461 37.9719 14.5518C39.9069 16.9576 41.1355 19.8536 41.5209 22.9167V22.9167ZM18.9167 27.0834H31.2501C30.7169 32.2305 28.5231 37.0642 25.0001 40.8543C21.4794 37.08 19.3359 32.2278 18.9167 27.0834V27.0834ZM18.9167 22.9167C19.4019 17.7956 21.5367 12.9703 25.0001 9.16675C28.5516 12.9295 30.7504 17.7668 31.2501 22.9167H18.9167ZM19.6667 9.22925C16.82 13.2647 15.1142 17.9932 14.7292 22.9167H8.47925C8.8728 19.8157 10.1305 16.8878 12.1088 14.4675C14.087 12.0472 16.706 10.232 19.6667 9.22925V9.22925ZM8.47925 27.0834H14.7292C15.0724 32.0027 16.7665 36.7319 19.6251 40.7501C16.675 39.7424 14.0667 37.9276 12.0965 35.5117C10.1262 33.0959 8.87303 30.1759 8.47925 27.0834V27.0834ZM30.4584 40.7292C33.3093 36.7098 35.0223 31.9954 35.4168 27.0834H41.5626C41.1686 30.1673 39.9199 33.0794 37.9577 35.4908C35.9954 37.9022 33.3978 39.7167 30.4584 40.7292V40.7292Z" fill="#3366BB"/>
</svg>
